<?xml version="1.0" encoding="utf-8"?>
<!-- Generator: Adobe Illustrator 25.0.1, SVG Export Plug-In . SVG Version: 6.00 Build 0)  -->
<svg version="1.1" id="圖層_1" xmlns="http://www.w3.org/2000/svg" xmlns:xlink="http://www.w3.org/1999/xlink" x="0px" y="0px"
	 viewBox="0 0 2423.2 210.4" style="enable-background:new 0 0 2423.2 210.4;" xml:space="preserve">
<style type="text/css">
	.st0{fill:none;stroke:#FBC300;stroke-width:3;stroke-miterlimit:10;}
</style>
<g>
	<path class="st0" d="M137.8,177.8c0,1.2-0.8,2-2.4,2.4c-2,0.5-8,0.8-18.2,0.8c-9.3,0-15.3-0.3-18-0.8c-2.2-0.5-3.6-1.9-4.2-4.4
		c-2.2-9.4-3.9-14.4-5.2-15c-1-0.5-9.8-0.7-26.2-0.7c-11.1,0-17,0.3-17.7,0.9c-1.1,1-2.3,4.5-3.7,10.4c-1.2,5.4-2.7,8.3-4.5,8.8
		c-2.2,0.5-9.6,0.8-22.3,0.8c-10,0-14.9-0.9-14.9-2.8c0-1.7,7.4-22.5,22.1-62.4c16-43.2,24.6-66.9,26-71.2c0.8-2.5,1.7-3.7,2.7-3.7
		c1.8,0,4.5,0.2,8.2,0.5c3.7,0.3,6.4,0.5,8.3,0.5c1.8,0,4.3-0.1,7.8-0.3c3.4-0.2,6-0.3,7.7-0.3c1.2,0,2.4,1.1,3.4,3.2
		c3.2,6.8,12.5,30.3,27.9,70.3C130,155,137.8,176.1,137.8,177.8z M68.6,88.9c-1.4,2.9-3.7,9.1-6.9,18.7c-3.5,10.2-5.3,16.1-5.3,17.9
		c0,1.2,2,1.8,5.9,2c2,0.1,5.3,0.2,10,0.2c4.3,0,6.7-0.5,7.1-1.6c0.1-0.3,0.2-0.8,0.2-1.4c0-2.1-1.5-8.1-4.5-17.8
		C72.1,97.4,69.9,91.5,68.6,88.9z"/>
	<path class="st0" d="M264.4,132.3c0,16.6-2,27.9-6,34c-7.3,11.1-25.5,16.6-54.6,16.6c-13.2,0-23.3-1-30.4-3
		c-11.3-3.3-18.7-9.5-22.1-18.7c-1.7-4.5-2.5-12.5-2.5-24c0-2.7,0.1-6.6,0.3-11.9s0.3-9.2,0.3-11.8c0-7.6-0.4-18.9-1.1-34
		c-0.7-15.1-1.1-26.4-1.1-33.9c0-1.6,0.7-2.3,2.1-2.3c4,0,10,0.2,18,0.5c8,0.3,14,0.5,18,0.5c1.6,0,2.4,0.7,2.4,2.1
		c0,8.6-0.3,21.5-0.8,38.6c-0.6,17.2-0.8,30-0.8,38.6c0,10.2,1.1,17.1,3.2,20.7c2.9,4.9,8.9,7.3,18,7.3c13.3,0,20-6.5,20-19.4
		c0-9.4-0.2-23.6-0.7-42.5c-0.5-18.9-0.7-33-0.7-42.5c0-2,0.8-3,2.4-3c3.8,0,9.6-0.2,17.4-0.5c7.7-0.3,13.5-0.5,17.4-0.5
		c1.9,0,2.8,0.8,2.8,2.3c0,7.5-0.3,18.8-0.9,33.9c-0.6,15.1-0.9,26.4-0.9,34c0,2.1,0,5.2,0.1,9.4
		C264.3,127.1,264.4,130.2,264.4,132.3z"/>
	<path class="st0" d="M350.2,135.3c0,13.2-5.6,24.5-16.7,34c-9.8,8.3-21.6,13.6-35.6,15.9c-0.5,0.1-0.9,0.1-1.3,0.1
		c-1.5,0-4.8-4.6-10-13.7c-5.1-9.1-7.7-14.7-7.7-16.7c0-0.7,0.5-1.2,1.5-1.4c9.4-2.1,15.7-4,18.8-5.5c6.8-3.4,10.2-8.4,10.2-15
		c0-4.2-2.2-9-6.6-14.2c-7.7-8.9-11.9-13.8-12.5-14.7c-4.5-6.8-6.7-14.3-6.7-22.5c0-11.9,5.5-21.8,16.5-29.7
		c9-6.5,20-10.7,33.1-12.7c0.7-0.1,1.3-0.1,1.7-0.1c1,0,1.8,0.8,2.3,2.3c1.7,4.8,5.6,13.3,11.8,25.8c0.2,0.4,0.3,0.7,0.3,1
		c0,1.1-0.6,1.7-1.8,1.7c-0.5,0-1.4-0.1-2.6-0.3c-1.2-0.2-2.2-0.3-2.8-0.3c-4.7,0-8.8,1.1-12.3,3.2c-4.2,2.5-6.3,5.9-6.3,10.4
		c0,4,2.3,8.9,7,14.6c8.3,10.4,12.6,15.9,13,16.4C347.9,121.1,350.2,128.2,350.2,135.3z"/>
	<path class="st0" d="M461.5,73.1c0,1.3-0.7,2-2.1,2c-2.5,0-12.3-0.5-29.4-1.5c-0.4,16.5-0.6,28-0.6,34.5c0,7.7,0.3,19.2,0.9,34.7
		c0.6,15.4,0.9,27,0.9,34.7c0,1.2-0.3,2-0.9,2.3c-0.2,0.1-1.1,0.3-2.7,0.5c-3.9,0.5-9.6,0.8-17.2,0.8c-8.4,0-14.3-0.3-17.7-0.8
		c-1.8-0.3-2.7-1.3-2.7-3c0-7.7,0.3-19.2,1-34.6c0.6-15.4,1-26.9,1-34.6c0-5.1-0.3-16.4-0.8-34c-13,1.3-23.4,2-31.2,2
		c-1,0-1.6-0.3-1.6-1c0-0.8,0.5-3.4,1.4-7.5c1-4.6,1.6-7.3,1.8-8.3c0.2-3.1,0.4-6.1,0.7-9.2c0.5-4.9,1.2-7.3,2.3-7.3
		c0.1,0,0.6,0,1.4,0.1c10.5,1.4,26.1,2.1,46.8,2.1c5.9,0,16.7-0.6,32.4-1.9c8.5-0.6,12.7-1,12.8-1c1.3,0,2.1,0.1,2.2,0.2
		c0.2,0.2,0.3,0.8,0.4,1.9c0,1.8-0.1,4.2-0.2,7.3c-0.1,3.5-0.2,5.9-0.2,7.3c0,1.6,0.2,4,0.6,7.2C461.3,69.2,461.5,71.6,461.5,73.1z"
		/>
	<path class="st0" d="M511.6,108.1c0,7.7,0.2,19.2,0.6,34.7s0.6,27,0.6,34.7c0,1.3-0.3,2.1-0.9,2.4c-0.1,0.1-1,0.2-2.5,0.4
		c-4.2,0.5-9.9,0.8-17,0.8c-9.5,0-15.6-0.3-18.2-0.8c-1.9-0.4-2.8-1.4-2.8-3c0,1,0.3-4.7,0.9-17.2c1.2-26.4,1.8-43.7,1.8-52
		c0-7-0.2-17.4-0.7-31.3c-0.5-13.9-0.7-24.4-0.7-31.3c0-1.4,0.7-2.1,2.2-2.1c2,0,5.1,0.1,9.1,0.3c4.1,0.2,7.1,0.3,9.1,0.3
		c2,0,5-0.1,8.9-0.3c3.9-0.2,6.9-0.3,8.9-0.3c1.9,0,2.8,0.7,2.8,2.1c0,7-0.4,17.4-1.1,31.3C512,90.7,511.6,101.1,511.6,108.1z"/>
	<path class="st0" d="M662.2,46.3c0,7.4-0.3,18.6-0.9,33.4c-0.6,14.9-0.9,26.1-0.9,33.5v64.4c0,1.8-0.9,2.6-2.8,2.6
		c-1.6,0-3.9,0.1-7.1,0.2c-3.2,0.1-5.5,0.2-7.1,0.2c-1.7,0-4.2-0.1-7.6-0.4c-3.4-0.3-5.9-0.4-7.6-0.4c-1.2,0-2.6-1.1-4.2-3.2
		c-4.7-6.3-15.2-20.3-31.6-42c-4.5-6.1-11.3-15-20.5-26.8c-0.3-0.4-0.7-0.8-1.5-1.2c-0.5,0.5-0.8,1.2-0.8,2.1c0,7.6,0.2,18.9,0.6,34
		c0.4,15.1,0.6,26.4,0.6,34c0,2.3-0.9,3.4-2.6,3.4h-33.8c-1.9,0-2.8-1-2.8-3c0-7,0.3-17.6,1-31.8c0.7-14.2,1-24.8,1-31.9
		c0-7.5-0.3-18.7-0.9-33.6c-0.6-14.9-0.9-26.1-0.9-33.5c0-1.4,1.3-2.1,3.8-2.1c3.8,0,8.4-0.3,14-0.8c1.3-0.1,3.9-0.6,7.7-1.3
		c3.3-0.6,5.8-0.9,7.7-0.9c0.8,0,2,1.1,3.6,3.3L605,94.5c3.3,4.5,8.2,11.1,14.7,19.7c1.6,2,3,3,4.2,3c0.8,0,1.3-2.5,1.3-7.6
		c0-6.8-0.4-17.1-1.1-30.9c-0.7-13.7-1.1-24.1-1.1-31c0-2.4,0.7-3.6,2.1-3.6c3.9,0,9.8-0.2,17.7-0.5c7.9-0.3,13.8-0.5,17.7-0.5
		C661.6,43.2,662.2,44.3,662.2,46.3z"/>
	<path class="st0" d="M844.4,158.2c0,1-0.7,2.4-2.1,4.1c-12,14.3-27.9,21.4-47.8,21.4c-20.3,0-36.8-6.9-49.4-20.8
		c-12.3-13.4-18.5-30.3-18.5-50.8c0-19.8,6-36.6,18.1-50.4C757.4,47.3,773.4,40,792.8,40c21.1,0,37.6,6.5,49.6,19.4
		c1.3,1.4,2,2.7,2,3.8c0,1.2-2.3,5.8-6.8,13.8c-4.5,7.9-7.4,12.4-8.5,13.4c-0.5,0.5-1.2,0.8-2,0.8c-0.3,0-2-1.3-4.9-3.9
		c-3.5-3.1-7-5.6-10.4-7.3c-5.1-2.6-10.5-3.9-16-3.9c-9.6,0-17.2,3.6-22.9,10.7c-5.3,6.6-7.9,14.8-7.9,24.6c0,9.9,2.6,18.2,7.9,24.9
		c5.7,7.3,13.4,10.9,22.9,10.9c5.7,0,11-1.2,16.1-3.7c3.3-1.6,6.7-3.9,10.2-6.8c2.9-2.5,4.5-3.7,4.8-3.7c0.6,0,1.3,0.4,2,1.1
		c1,1.2,3.9,5.2,8.5,12.2C842.1,153.5,844.4,157.5,844.4,158.2z"/>
	<path class="st0" d="M986,177.2c0,1.4-0.3,2.2-0.9,2.5c-0.3,0.2-1.2,0.4-2.7,0.5c-4,0.4-9.6,0.6-16.8,0.6c-10.2,0-16.2-0.2-18-0.6
		s-2.7-1.3-2.7-2.6c0-5.1,0.2-12.9,0.7-23.2c0.5-10.3,0.7-18,0.7-23.2c0-2.5-0.7-4-2.1-4.4c-2.2-0.5-10.1-0.8-23.6-0.8
		c-13.6,0-21.5,0.3-23.8,0.8c-1.4,0.3-2.1,1.8-2.1,4.4c0,5.1,0.2,12.7,0.5,22.8c0.3,10.1,0.5,17.7,0.5,22.8c0,2-0.9,3.1-2.6,3.4
		c-2.1,0.4-8.2,0.6-18.4,0.6c-8.8,0-14.4-0.2-16.8-0.6c-1.9-0.3-2.8-1.3-2.8-3c0-7,0.3-17.6,1-31.8c0.7-14.2,1-24.8,1-31.9
		c0-7.6-0.3-18.9-1-34c-0.7-15.1-1-26.5-1-34c0-1.4,0.7-2.1,2.1-2.1c2,0,5.1,0.1,9.1,0.3c4.1,0.2,7.1,0.3,9.1,0.3
		c2.1,0,5.2-0.1,9.4-0.3s7.3-0.3,9.4-0.3c1.1,0,1.7,0.6,1.7,1.8c0,4.9-0.4,12.2-1.1,21.9c-0.7,9.7-1.1,17-1.1,21.9
		c0,2.3,0.6,3.6,1.9,4c1.7,0.5,10,0.8,25,0.8c13.9,0,22-0.3,24.2-0.8c1.6-0.4,2.3-1.7,2.3-4c0-4.7-0.2-11.8-0.7-21.2
		s-0.7-16.6-0.7-21.3c0-2,0.8-3,2.4-3c1.9,0,4.8,0.1,8.6,0.3s6.8,0.3,8.7,0.3c1.9,0,4.8-0.1,8.6-0.3s6.8-0.3,8.7-0.3
		c1.9,0,2.8,0.8,2.8,2.3c0,7.5-0.3,18.8-0.9,33.9c-0.6,15.1-0.9,26.4-0.9,34c0,7.1,0.3,17.7,1,31.9C985.7,159.6,986,170.2,986,177.2
		z"/>
	<path class="st0" d="M1043.7,108.1c0,7.7,0.2,19.2,0.6,34.7s0.6,27,0.6,34.7c0,1.3-0.3,2.1-0.9,2.4c-0.1,0.1-1,0.2-2.5,0.4
		c-4.2,0.5-9.9,0.8-17,0.8c-9.5,0-15.6-0.3-18.2-0.8c-1.9-0.4-2.8-1.4-2.8-3c0,1,0.3-4.7,0.9-17.2c1.2-26.4,1.8-43.7,1.8-52
		c0-7-0.2-17.4-0.7-31.3c-0.5-13.9-0.7-24.4-0.7-31.3c0-1.4,0.7-2.1,2.2-2.1c2,0,5.1,0.1,9.1,0.3c4.1,0.2,7.1,0.3,9.1,0.3
		c2,0,5-0.1,8.9-0.3c3.9-0.2,6.9-0.3,8.9-0.3c1.9,0,2.8,0.7,2.8,2.1c0,7-0.4,17.4-1.1,31.3C1044,90.7,1043.7,101.1,1043.7,108.1z"/>
	<path class="st0" d="M1180.2,132.3c0,16.6-2,27.9-6,34c-7.3,11.1-25.5,16.6-54.6,16.6c-13.2,0-23.3-1-30.4-3
		c-11.3-3.3-18.7-9.5-22.1-18.7c-1.7-4.5-2.5-12.5-2.5-24c0-2.7,0.1-6.6,0.3-11.9s0.3-9.2,0.3-11.8c0-7.6-0.4-18.9-1.1-34
		c-0.7-15.1-1.1-26.4-1.1-33.9c0-1.6,0.7-2.3,2.1-2.3c4,0,10,0.2,18,0.5c8,0.3,14,0.5,18,0.5c1.6,0,2.4,0.7,2.4,2.1
		c0,8.6-0.3,21.5-0.8,38.6c-0.6,17.2-0.8,30-0.8,38.6c0,10.2,1.1,17.1,3.2,20.7c2.9,4.9,8.9,7.3,18,7.3c13.3,0,20-6.5,20-19.4
		c0-9.4-0.2-23.6-0.7-42.5c-0.5-18.9-0.7-33-0.7-42.5c0-2,0.8-3,2.4-3c3.8,0,9.6-0.2,17.4-0.5c7.7-0.3,13.5-0.5,17.4-0.5
		c1.9,0,2.8,0.8,2.8,2.3c0,7.5-0.3,18.8-0.9,33.9c-0.6,15.1-0.9,26.4-0.9,34c0,2.1,0,5.2,0.1,9.4
		C1180.1,127.1,1180.2,130.2,1180.2,132.3z"/>
</g>
<g>
	<path class="st0" d="M1369.6,177.8c0,1.2-0.8,2-2.4,2.4c-2,0.5-8,0.8-18.2,0.8c-9.3,0-15.3-0.3-18-0.8c-2.2-0.5-3.6-1.9-4.2-4.4
		c-2.2-9.4-3.9-14.4-5.2-15c-1-0.5-9.8-0.7-26.2-0.7c-11.1,0-17,0.3-17.7,0.9c-1.1,1-2.3,4.5-3.7,10.4c-1.2,5.4-2.7,8.3-4.5,8.8
		c-2.2,0.5-9.6,0.8-22.3,0.8c-10,0-14.9-0.9-14.9-2.8c0-1.7,7.4-22.5,22.1-62.4c16-43.2,24.6-66.9,26-71.2c0.8-2.5,1.7-3.7,2.7-3.7
		c1.8,0,4.5,0.2,8.2,0.5c3.7,0.3,6.4,0.5,8.3,0.5c1.8,0,4.3-0.1,7.8-0.3c3.4-0.2,6-0.3,7.7-0.3c1.2,0,2.4,1.1,3.4,3.2
		c3.2,6.8,12.5,30.3,27.9,70.3C1361.8,155,1369.6,176.1,1369.6,177.8z M1300.3,88.9c-1.4,2.9-3.7,9.1-6.9,18.7
		c-3.5,10.2-5.3,16.1-5.3,17.9c0,1.2,2,1.8,5.9,2c2,0.1,5.3,0.2,10,0.2c4.3,0,6.7-0.5,7.1-1.6c0.1-0.3,0.2-0.8,0.2-1.4
		c0-2.1-1.5-8.1-4.5-17.8C1303.9,97.4,1301.7,91.5,1300.3,88.9z"/>
	<path class="st0" d="M1496.1,132.3c0,16.6-2,27.9-6,34c-7.3,11.1-25.5,16.6-54.6,16.6c-13.2,0-23.3-1-30.4-3
		c-11.3-3.3-18.7-9.5-22.1-18.7c-1.7-4.5-2.5-12.5-2.5-24c0-2.7,0.1-6.6,0.3-11.9s0.3-9.2,0.3-11.8c0-7.6-0.4-18.9-1.1-34
		c-0.7-15.1-1.1-26.4-1.1-33.9c0-1.6,0.7-2.3,2.1-2.3c4,0,10,0.2,18,0.5c8,0.3,14,0.5,18,0.5c1.6,0,2.4,0.7,2.4,2.1
		c0,8.6-0.3,21.5-0.8,38.6c-0.6,17.2-0.8,30-0.8,38.6c0,10.2,1.1,17.1,3.2,20.7c2.9,4.9,8.9,7.3,18,7.3c13.3,0,20-6.5,20-19.4
		c0-9.4-0.2-23.6-0.7-42.5c-0.5-18.9-0.7-33-0.7-42.5c0-2,0.8-3,2.4-3c3.8,0,9.6-0.2,17.4-0.5c7.7-0.3,13.5-0.5,17.4-0.5
		c1.9,0,2.8,0.8,2.8,2.3c0,7.5-0.3,18.8-0.9,33.9c-0.6,15.1-0.9,26.4-0.9,34c0,2.1,0,5.2,0.1,9.4
		C1496.1,127.1,1496.1,130.2,1496.1,132.3z"/>
	<path class="st0" d="M1582,135.3c0,13.2-5.6,24.5-16.7,34c-9.8,8.3-21.6,13.6-35.6,15.9c-0.5,0.1-0.9,0.1-1.3,0.1
		c-1.5,0-4.8-4.6-10-13.7c-5.1-9.1-7.7-14.7-7.7-16.7c0-0.7,0.5-1.2,1.5-1.4c9.4-2.1,15.7-4,18.8-5.5c6.8-3.4,10.2-8.4,10.2-15
		c0-4.2-2.2-9-6.6-14.2c-7.7-8.9-11.9-13.8-12.5-14.7c-4.5-6.8-6.7-14.3-6.7-22.5c0-11.9,5.5-21.8,16.5-29.7
		c9-6.5,20-10.7,33.1-12.7c0.7-0.1,1.3-0.1,1.7-0.1c1,0,1.8,0.8,2.3,2.3c1.7,4.8,5.6,13.3,11.8,25.8c0.2,0.4,0.3,0.7,0.3,1
		c0,1.1-0.6,1.7-1.8,1.7c-0.5,0-1.4-0.1-2.6-0.3c-1.2-0.2-2.2-0.3-2.8-0.3c-4.7,0-8.8,1.1-12.3,3.2c-4.2,2.5-6.3,5.9-6.3,10.4
		c0,4,2.3,8.9,7,14.6c8.3,10.4,12.6,15.9,13,16.4C1579.7,121.1,1582,128.2,1582,135.3z"/>
	<path class="st0" d="M1693.3,73.1c0,1.3-0.7,2-2.1,2c-2.5,0-12.3-0.5-29.4-1.5c-0.4,16.5-0.6,28-0.6,34.5c0,7.7,0.3,19.2,0.9,34.7
		c0.6,15.4,0.9,27,0.9,34.7c0,1.2-0.3,2-0.9,2.3c-0.2,0.1-1.1,0.3-2.7,0.5c-3.9,0.5-9.6,0.8-17.2,0.8c-8.4,0-14.3-0.3-17.7-0.8
		c-1.8-0.3-2.7-1.3-2.7-3c0-7.7,0.3-19.2,1-34.6c0.6-15.4,1-26.9,1-34.6c0-5.1-0.3-16.4-0.8-34c-13,1.3-23.4,2-31.2,2
		c-1,0-1.6-0.3-1.6-1c0-0.8,0.5-3.4,1.4-7.5c1-4.6,1.6-7.3,1.8-8.3c0.2-3.1,0.4-6.1,0.7-9.2c0.5-4.9,1.2-7.3,2.3-7.3
		c0.1,0,0.6,0,1.4,0.1c10.5,1.4,26.1,2.1,46.8,2.1c5.9,0,16.7-0.6,32.4-1.9c8.5-0.7,12.7-1,12.8-1c1.3,0,2.1,0.1,2.2,0.2
		c0.2,0.2,0.3,0.8,0.4,1.9c0,1.8-0.1,4.2-0.2,7.3c-0.1,3.5-0.2,5.9-0.2,7.3c0,1.6,0.2,4,0.6,7.2
		C1693.1,69.2,1693.3,71.6,1693.3,73.1z"/>
	<path class="st0" d="M1743.4,108.1c0,7.7,0.2,19.2,0.6,34.7s0.6,27,0.6,34.7c0,1.3-0.3,2.1-0.9,2.4c-0.1,0.1-1,0.2-2.5,0.4
		c-4.2,0.5-9.9,0.8-17,0.8c-9.5,0-15.6-0.3-18.2-0.8c-1.9-0.4-2.8-1.4-2.8-3c0,1,0.3-4.7,0.9-17.2c1.2-26.4,1.8-43.7,1.8-52
		c0-7-0.2-17.4-0.7-31.3c-0.5-13.9-0.7-24.4-0.7-31.3c0-1.4,0.7-2.1,2.2-2.1c2,0,5.1,0.1,9.1,0.3c4.1,0.2,7.1,0.3,9.1,0.3
		c2,0,5-0.1,8.9-0.3c3.9-0.2,6.9-0.3,8.9-0.3c1.9,0,2.8,0.7,2.8,2.1c0,7-0.4,17.4-1.1,31.3C1743.8,90.7,1743.4,101.1,1743.4,108.1z"
		/>
	<path class="st0" d="M1894,46.3c0,7.4-0.3,18.6-0.9,33.4c-0.6,14.9-0.9,26.1-0.9,33.5v64.4c0,1.8-0.9,2.6-2.8,2.6
		c-1.6,0-3.9,0.1-7.1,0.2c-3.2,0.1-5.5,0.2-7.1,0.2c-1.7,0-4.2-0.1-7.6-0.4c-3.4-0.3-5.9-0.4-7.6-0.4c-1.2,0-2.6-1.1-4.2-3.2
		c-4.7-6.3-15.2-20.3-31.6-42c-4.5-6.1-11.3-15-20.5-26.8c-0.3-0.4-0.7-0.8-1.5-1.2c-0.5,0.5-0.8,1.2-0.8,2.1c0,7.6,0.2,18.9,0.6,34
		c0.4,15.1,0.6,26.4,0.6,34c0,2.3-0.9,3.4-2.6,3.4h-33.8c-1.9,0-2.8-1-2.8-3c0-7,0.3-17.6,1-31.8c0.7-14.2,1-24.8,1-31.9
		c0-7.5-0.3-18.7-0.9-33.6c-0.6-14.9-0.9-26.1-0.9-33.5c0-1.4,1.3-2.1,3.8-2.1c3.8,0,8.4-0.3,14-0.8c1.3-0.1,3.9-0.6,7.7-1.3
		c3.3-0.6,5.8-0.9,7.7-0.9c0.8,0,2,1.1,3.6,3.3l36.4,49.9c3.3,4.5,8.2,11.1,14.7,19.7c1.6,2,3,3,4.2,3c0.8,0,1.3-2.5,1.3-7.6
		c0-6.8-0.4-17.1-1.1-30.9c-0.7-13.7-1.1-24.1-1.1-31c0-2.4,0.7-3.6,2.1-3.6c3.9,0,9.8-0.2,17.7-0.5c7.9-0.3,13.8-0.5,17.7-0.5
		C1893.4,43.2,1894,44.3,1894,46.3z"/>
	<path class="st0" d="M2076.2,158.2c0,1-0.7,2.4-2.1,4.1c-12,14.3-27.9,21.4-47.8,21.4c-20.3,0-36.8-6.9-49.4-20.8
		c-12.3-13.4-18.5-30.3-18.5-50.8c0-19.8,6-36.6,18.1-50.4c12.6-14.5,28.5-21.7,47.9-21.7c21.1,0,37.6,6.5,49.6,19.4
		c1.3,1.4,2,2.7,2,3.8c0,1.2-2.3,5.8-6.8,13.8c-4.5,7.9-7.4,12.4-8.5,13.4c-0.5,0.5-1.2,0.8-2,0.8c-0.3,0-2-1.3-4.9-3.9
		c-3.5-3.1-7-5.6-10.4-7.3c-5.1-2.6-10.5-3.9-16-3.9c-9.6,0-17.2,3.6-22.9,10.7c-5.3,6.6-7.9,14.8-7.9,24.6c0,9.9,2.6,18.2,7.9,24.9
		c5.7,7.3,13.4,10.9,22.9,10.9c5.7,0,11-1.2,16.1-3.7c3.3-1.6,6.7-3.9,10.2-6.8c2.9-2.5,4.5-3.7,4.8-3.7c0.6,0,1.3,0.4,2,1.1
		c1,1.2,3.9,5.2,8.5,12.2C2073.8,153.5,2076.2,157.5,2076.2,158.2z"/>
	<path class="st0" d="M2217.8,177.2c0,1.4-0.3,2.2-0.9,2.5c-0.3,0.2-1.2,0.4-2.7,0.5c-4,0.4-9.6,0.6-16.8,0.6
		c-10.2,0-16.2-0.2-18-0.6s-2.7-1.3-2.7-2.6c0-5.1,0.2-12.9,0.7-23.2c0.5-10.3,0.7-18,0.7-23.2c0-2.5-0.7-4-2.1-4.4
		c-2.2-0.5-10.1-0.8-23.6-0.8c-13.6,0-21.5,0.3-23.8,0.8c-1.4,0.3-2.1,1.8-2.1,4.4c0,5.1,0.2,12.7,0.5,22.8
		c0.3,10.1,0.5,17.7,0.5,22.8c0,2-0.9,3.1-2.6,3.4c-2.1,0.4-8.2,0.6-18.4,0.6c-8.8,0-14.4-0.2-16.8-0.6c-1.9-0.3-2.8-1.3-2.8-3
		c0-7,0.3-17.6,1-31.8c0.7-14.2,1-24.8,1-31.9c0-7.6-0.3-18.9-1-34c-0.7-15.1-1-26.5-1-34c0-1.4,0.7-2.1,2.1-2.1
		c2,0,5.1,0.1,9.1,0.3c4.1,0.2,7.1,0.3,9.1,0.3c2.1,0,5.2-0.1,9.4-0.3s7.3-0.3,9.4-0.3c1.1,0,1.7,0.6,1.7,1.8
		c0,4.9-0.4,12.2-1.1,21.9c-0.7,9.7-1.1,17-1.1,21.9c0,2.3,0.6,3.6,1.9,4c1.7,0.5,10,0.8,25,0.8c13.9,0,22-0.3,24.2-0.8
		c1.6-0.4,2.3-1.7,2.3-4c0-4.7-0.2-11.8-0.7-21.2s-0.7-16.6-0.7-21.3c0-2,0.8-3,2.4-3c1.9,0,4.8,0.1,8.6,0.3s6.8,0.3,8.7,0.3
		c1.9,0,4.8-0.1,8.6-0.3s6.8-0.3,8.7-0.3c1.9,0,2.8,0.8,2.8,2.3c0,7.5-0.3,18.8-0.9,33.9c-0.6,15.1-0.9,26.4-0.9,34
		c0,7.1,0.3,17.7,1,31.9C2217.5,159.6,2217.8,170.2,2217.8,177.2z"/>
	<path class="st0" d="M2275.4,108.1c0,7.7,0.2,19.2,0.6,34.7s0.6,27,0.6,34.7c0,1.3-0.3,2.1-0.9,2.4c-0.1,0.1-1,0.2-2.5,0.4
		c-4.2,0.5-9.9,0.8-17,0.8c-9.5,0-15.6-0.3-18.2-0.8c-1.9-0.4-2.8-1.4-2.8-3c0,1,0.3-4.7,0.9-17.2c1.2-26.4,1.8-43.7,1.8-52
		c0-7-0.2-17.4-0.7-31.3c-0.5-13.9-0.7-24.4-0.7-31.3c0-1.4,0.7-2.1,2.2-2.1c2,0,5.1,0.1,9.1,0.3c4.1,0.2,7.1,0.3,9.1,0.3
		c2,0,5-0.1,8.9-0.3c3.9-0.2,6.9-0.3,8.9-0.3c1.9,0,2.8,0.7,2.8,2.1c0,7-0.4,17.4-1.1,31.3C2275.8,90.7,2275.4,101.1,2275.4,108.1z"
		/>
	<path class="st0" d="M2412,132.3c0,16.6-2,27.9-6,34c-7.3,11.1-25.5,16.6-54.6,16.6c-13.2,0-23.3-1-30.4-3
		c-11.3-3.3-18.7-9.5-22.1-18.7c-1.7-4.5-2.5-12.5-2.5-24c0-2.7,0.1-6.6,0.3-11.9s0.3-9.2,0.3-11.8c0-7.6-0.4-18.9-1.1-34
		c-0.7-15.1-1.1-26.4-1.1-33.9c0-1.6,0.7-2.3,2.1-2.3c4,0,10,0.2,18,0.5c8,0.3,14,0.5,18,0.5c1.6,0,2.4,0.7,2.4,2.1
		c0,8.6-0.3,21.5-0.8,38.6c-0.6,17.2-0.8,30-0.8,38.6c0,10.2,1.1,17.1,3.2,20.7c2.9,4.9,8.9,7.3,18,7.3c13.3,0,20-6.5,20-19.4
		c0-9.4-0.2-23.6-0.7-42.5c-0.5-18.9-0.7-33-0.7-42.5c0-2,0.8-3,2.4-3c3.8,0,9.6-0.2,17.4-0.5c7.7-0.3,13.5-0.5,17.4-0.5
		c1.9,0,2.8,0.8,2.8,2.3c0,7.5-0.3,18.8-0.9,33.9c-0.6,15.1-0.9,26.4-0.9,34c0,2.1,0,5.2,0.1,9.4
		C2411.9,127.1,2412,130.2,2412,132.3z"/>
</g>
<g>
</g>
<g>
</g>
<g>
</g>
<g>
</g>
<g>
</g>
<g>
</g>
<g>
</g>
<g>
</g>
<g>
</g>
<g>
</g>
<g>
</g>
<g>
</g>
<g>
</g>
<g>
</g>
<g>
</g>
</svg>
